<svg id="visual" viewBox="0 0 900 450" width="900" height="450" xmlns="http://www.w3.org/2000/svg" xmlns:xlink="http://www.w3.org/1999/xlink" version="1.1"><rect x="0" y="0" width="900" height="450" fill="#293241"></rect><g fill="#3e434c"><circle r="12" cx="566" cy="112"></circle><circle r="1" cx="368" cy="225"></circle><circle r="10" cx="457" cy="155"></circle><circle r="1" cx="778" cy="76"></circle><circle r="5" cx="859" cy="230"></circle><circle r="1" cx="295" cy="294"></circle><circle r="9" cx="389" cy="338"></circle><circle r="4" cx="433" cy="368"></circle><circle r="3" cx="630" cy="275"></circle><circle r="3" cx="612" cy="363"></circle><circle r="0" cx="625" cy="404"></circle><circle r="4" cx="758" cy="11"></circle><circle r="7" cx="656" cy="449"></circle><circle r="10" cx="813" cy="28"></circle><circle r="4" cx="886" cy="131"></circle><circle r="2" cx="449" cy="85"></circle><circle r="4" cx="727" cy="435"></circle><circle r="8" cx="750" cy="140"></circle><circle r="4" cx="230" cy="140"></circle><circle r="3" cx="465" cy="226"></circle><circle r="2" cx="290" cy="149"></circle><circle r="6" cx="261" cy="167"></circle><circle r="0" cx="413" cy="436"></circle><circle r="7" cx="104" cy="412"></circle><circle r="1" cx="300" cy="235"></circle><circle r="5" cx="259" cy="46"></circle><circle r="7" cx="401" cy="201"></circle><circle r="1" cx="213" cy="108"></circle><circle r="0" cx="7" cy="359"></circle><circle r="6" cx="52" cy="262"></circle><circle r="4" cx="348" cy="206"></circle><circle r="0" cx="108" cy="57"></circle><circle r="7" cx="128" cy="424"></circle><circle r="8" cx="862" cy="18"></circle><circle r="2" cx="669" cy="48"></circle><circle r="2" cx="795" cy="265"></circle><circle r="9" cx="368" cy="140"></circle><circle r="8" cx="60" cy="393"></circle><circle r="1" cx="56" cy="315"></circle><circle r="4" cx="320" cy="100"></circle><circle r="8" cx="286" cy="352"></circle><circle r="10" cx="507" cy="312"></circle><circle r="7" cx="284" cy="429"></circle><circle r="9" cx="255" cy="228"></circle><circle r="1" cx="577" cy="49"></circle><circle r="9" cx="505" cy="54"></circle><circle r="10" cx="729" cy="175"></circle><circle r="9" cx="252" cy="21"></circle><circle r="10" cx="476" cy="285"></circle><circle r="6" cx="605" cy="113"></circle><circle r="4" cx="194" cy="419"></circle><circle r="6" cx="63" cy="88"></circle><circle r="10" cx="311" cy="343"></circle><circle r="6" cx="150" cy="70"></circle><circle r="7" cx="701" cy="154"></circle><circle r="9" cx="357" cy="31"></circle><circle r="7" cx="380" cy="426"></circle><circle r="3" cx="220" cy="428"></circle><circle r="4" cx="848" cy="395"></circle><circle r="9" cx="610" cy="192"></circle><circle r="2" cx="296" cy="79"></circle><circle r="4" cx="464" cy="435"></circle><circle r="0" cx="861" cy="90"></circle><circle r="2" cx="247" cy="284"></circle><circle r="1" cx="703" cy="437"></circle><circle r="3" cx="407" cy="36"></circle><circle r="5" cx="757" cy="56"></circle><circle r="6" cx="352" cy="364"></circle><circle r="3" cx="892" cy="217"></circle><circle r="2" cx="436" cy="427"></circle><circle r="8" cx="799" cy="321"></circle><circle r="9" cx="886" cy="166"></circle><circle r="6" cx="874" cy="377"></circle><circle r="2" cx="647" cy="373"></circle><circle r="9" cx="743" cy="329"></circle><circle r="9" cx="138" cy="211"></circle><circle r="1" cx="721" cy="385"></circle><circle r="4" cx="23" cy="214"></circle><circle r="9" cx="58" cy="431"></circle><circle r="8" cx="814" cy="72"></circle><circle r="3" cx="97" cy="4"></circle><circle r="8" cx="791" cy="171"></circle><circle r="7" cx="528" cy="65"></circle><circle r="6" cx="505" cy="203"></circle><circle r="2" cx="767" cy="389"></circle><circle r="10" cx="682" cy="194"></circle><circle r="9" cx="807" cy="237"></circle><circle r="5" cx="496" cy="167"></circle><circle r="6" cx="516" cy="123"></circle><circle r="8" cx="889" cy="244"></circle><circle r="5" cx="630" cy="150"></circle><circle r="2" cx="85" cy="187"></circle><circle r="9" cx="702" cy="220"></circle><circle r="4" cx="538" cy="106"></circle><circle r="4" cx="200" cy="287"></circle><circle r="1" cx="11" cy="448"></circle><circle r="6" cx="515" cy="344"></circle><circle r="7" cx="242" cy="446"></circle><circle r="3" cx="450" cy="312"></circle><circle r="3" cx="114" cy="174"></circle><circle r="3" cx="291" cy="124"></circle><circle r="9" cx="189" cy="230"></circle><circle r="7" cx="881" cy="313"></circle><circle r="6" cx="400" cy="155"></circle><circle r="2" cx="66" cy="114"></circle><circle r="4" cx="577" cy="89"></circle><circle r="3" cx="338" cy="242"></circle><circle r="0" cx="694" cy="326"></circle><circle r="5" cx="778" cy="434"></circle><circle r="0" cx="814" cy="350"></circle><circle r="6" cx="154" cy="268"></circle><circle r="10" cx="269" cy="301"></circle><circle r="7" cx="527" cy="12"></circle><circle r="1" cx="825" cy="436"></circle><circle r="7" cx="769" cy="342"></circle><circle r="8" cx="689" cy="74"></circle><circle r="0" cx="91" cy="163"></circle><circle r="6" cx="159" cy="131"></circle><circle r="4" cx="657" cy="109"></circle><circle r="2" cx="529" cy="264"></circle><circle r="6" cx="321" cy="265"></circle><circle r="7" cx="347" cy="121"></circle><circle r="0" cx="259" cy="419"></circle><circle r="6" cx="877" cy="353"></circle><circle r="8" cx="455" cy="261"></circle><circle r="6" cx="80" cy="438"></circle><circle r="7" cx="110" cy="313"></circle><circle r="1" cx="330" cy="41"></circle><circle r="4" cx="853" cy="293"></circle><circle r="3" cx="544" cy="286"></circle><circle r="0" cx="202" cy="345"></circle><circle r="5" cx="492" cy="32"></circle><circle r="2" cx="704" cy="279"></circle><circle r="2" cx="746" cy="88"></circle><circle r="1" cx="609" cy="66"></circle><circle r="9" cx="847" cy="110"></circle><circle r="0" cx="396" cy="106"></circle><circle r="8" cx="592" cy="408"></circle><circle r="3" cx="162" cy="37"></circle><circle r="1" cx="635" cy="23"></circle><circle r="10" cx="858" cy="340"></circle><circle r="3" cx="843" cy="423"></circle><circle r="3" cx="493" cy="142"></circle><circle r="4" cx="737" cy="1"></circle><circle r="6" cx="95" cy="389"></circle><circle r="7" cx="897" cy="95"></circle><circle r="4" cx="222" cy="200"></circle><circle r="1" cx="505" cy="370"></circle><circle r="3" cx="848" cy="52"></circle><circle r="5" cx="110" cy="261"></circle><circle r="1" cx="25" cy="376"></circle><circle r="1" cx="276" cy="330"></circle><circle r="5" cx="822" cy="102"></circle><circle r="6" cx="675" cy="168"></circle><circle r="10" cx="429" cy="223"></circle><circle r="3" cx="474" cy="404"></circle><circle r="5" cx="231" cy="172"></circle><circle r="10" cx="109" cy="226"></circle><circle r="3" cx="606" cy="255"></circle><circle r="2" cx="622" cy="311"></circle><circle r="5" cx="637" cy="230"></circle><circle r="6" cx="298" cy="207"></circle><circle r="4" cx="551" cy="328"></circle><circle r="8" cx="412" cy="255"></circle><circle r="6" cx="561" cy="365"></circle><circle r="3" cx="683" cy="250"></circle><circle r="8" cx="807" cy="187"></circle><circle r="6" cx="45" cy="165"></circle><circle r="0" cx="333" cy="142"></circle><circle r="6" cx="796" cy="368"></circle><circle r="10" cx="836" cy="264"></circle><circle r="10" cx="76" cy="331"></circle><circle r="10" cx="362" cy="332"></circle><circle r="2" cx="504" cy="9"></circle><circle r="1" cx="714" cy="112"></circle><circle r="0" cx="359" cy="404"></circle><circle r="7" cx="601" cy="446"></circle><circle r="4" cx="409" cy="5"></circle><circle r="3" cx="222" cy="373"></circle><circle r="5" cx="104" cy="100"></circle><circle r="8" cx="463" cy="13"></circle><circle r="0" cx="242" cy="110"></circle><circle r="4" cx="73" cy="355"></circle><circle r="9" cx="132" cy="145"></circle><circle r="7" cx="220" cy="265"></circle><circle r="8" cx="109" cy="362"></circle><circle r="4" cx="456" cy="51"></circle><circle r="3" cx="186" cy="165"></circle><circle r="3" cx="349" cy="304"></circle><circle r="3" cx="579" cy="141"></circle><circle r="10" cx="859" cy="168"></circle><circle r="10" cx="372" cy="284"></circle><circle r="2" cx="37" cy="411"></circle><circle r="8" cx="432" cy="173"></circle><circle r="7" cx="481" cy="201"></circle><circle r="4" cx="819" cy="150"></circle><circle r="3" cx="327" cy="369"></circle><circle r="5" cx="366" cy="184"></circle><circle r="1" cx="736" cy="253"></circle><circle r="9" cx="136" cy="183"></circle><circle r="6" cx="166" cy="343"></circle><circle r="10" cx="757" cy="268"></circle><circle r="7" cx="764" cy="170"></circle><circle r="10" cx="667" cy="16"></circle><circle r="8" cx="528" cy="388"></circle><circle r="1" cx="19" cy="325"></circle><circle r="5" cx="366" cy="445"></circle><circle r="6" cx="62" cy="238"></circle><circle r="7" cx="845" cy="205"></circle><circle r="8" cx="179" cy="194"></circle><circle r="6" cx="193" cy="1"></circle><circle r="1" cx="345" cy="162"></circle><circle r="6" cx="2" cy="45"></circle><circle r="1" cx="306" cy="173"></circle><circle r="0" cx="898" cy="426"></circle><circle r="3" cx="6" cy="146"></circle><circle r="5" cx="305" cy="403"></circle><circle r="2" cx="695" cy="381"></circle><circle r="3" cx="242" cy="331"></circle><circle r="9" cx="322" cy="14"></circle><circle r="7" cx="39" cy="13"></circle><circle r="4" cx="505" cy="435"></circle><circle r="1" cx="86" cy="287"></circle><circle r="5" cx="563" cy="389"></circle><circle r="9" cx="225" cy="299"></circle><circle r="9" cx="739" cy="28"></circle><circle r="8" cx="751" cy="213"></circle><circle r="3" cx="563" cy="171"></circle><circle r="6" cx="372" cy="75"></circle><circle r="6" cx="411" cy="124"></circle><circle r="8" cx="611" cy="34"></circle><circle r="5" cx="37" cy="75"></circle><circle r="4" cx="635" cy="193"></circle><circle r="10" cx="335" cy="400"></circle><circle r="5" cx="136" cy="302"></circle><circle r="1" cx="400" cy="291"></circle><circle r="4" cx="458" cy="337"></circle><circle r="10" cx="259" cy="79"></circle><circle r="3" cx="638" cy="79"></circle><circle r="10" cx="378" cy="247"></circle><circle r="5" cx="831" cy="315"></circle><circle r="3" cx="494" cy="244"></circle><circle r="3" cx="870" cy="422"></circle><circle r="6" cx="603" cy="156"></circle><circle r="2" cx="587" cy="183"></circle><circle r="9" cx="776" cy="113"></circle><circle r="1" cx="787" cy="289"></circle><circle r="7" cx="261" cy="383"></circle><circle r="2" cx="14" cy="78"></circle><circle r="6" cx="474" cy="82"></circle><circle r="3" cx="785" cy="213"></circle><circle r="10" cx="294" cy="266"></circle><circle r="1" cx="801" cy="115"></circle><circle r="10" cx="223" cy="34"></circle><circle r="1" cx="717" cy="40"></circle><circle r="1" cx="388" cy="366"></circle><circle r="9" cx="38" cy="284"></circle><circle r="0" cx="301" cy="4"></circle><circle r="10" cx="280" cy="104"></circle><circle r="0" cx="50" cy="196"></circle><circle r="1" cx="565" cy="229"></circle><circle r="2" cx="464" cy="372"></circle><circle r="9" cx="816" cy="296"></circle><circle r="1" cx="681" cy="293"></circle><circle r="9" cx="790" cy="33"></circle><circle r="4" cx="662" cy="215"></circle></g></svg>