<svg id="visual" viewBox="0 0 900 450" width="900" height="450" xmlns="http://www.w3.org/2000/svg" xmlns:xlink="http://www.w3.org/1999/xlink" version="1.1"><g stroke-width="1" stroke-linejoin="bevel"><path d="M453 256L472 351L497 252Z" fill="#2e769c" stroke="#2e769c"></path><path d="M472 351L527 328L497 252Z" fill="#335673" stroke="#335673"></path><path d="M527 328L591 277L497 252Z" fill="#31475f" stroke="#31475f"></path><path d="M448 158L392 194L453 256Z" fill="#2c394b" stroke="#2c394b"></path><path d="M453 256L355 386L472 351Z" fill="#293241" stroke="#293241"></path><path d="M448 158L453 256L497 252Z" fill="#335673" stroke="#335673"></path><path d="M591 277L505 157L497 252Z" fill="#335e7d" stroke="#335e7d"></path><path d="M505 157L448 158L497 252Z" fill="#326687" stroke="#326687"></path><path d="M330 252L355 386L453 256Z" fill="#316e92" stroke="#316e92"></path><path d="M527 328L631 327L591 277Z" fill="#326687" stroke="#326687"></path><path d="M501 58L469 99L505 157Z" fill="#2c394b" stroke="#2c394b"></path><path d="M611 450L631 327L527 328Z" fill="#324e69" stroke="#324e69"></path><path d="M518 450L527 328L472 351Z" fill="#297ea6" stroke="#297ea6"></path><path d="M432 450L518 450L472 351Z" fill="#2e769c" stroke="#2e769c"></path><path d="M392 194L330 252L453 256Z" fill="#297ea6" stroke="#297ea6"></path><path d="M355 386L432 450L472 351Z" fill="#316e92" stroke="#316e92"></path><path d="M392 194L306 228L330 252Z" fill="#316e92" stroke="#316e92"></path><path d="M330 252L287 357L355 386Z" fill="#2e769c" stroke="#2e769c"></path><path d="M293 158L306 228L392 194Z" fill="#2f4055" stroke="#2f4055"></path><path d="M518 450L611 450L527 328Z" fill="#293241" stroke="#293241"></path><path d="M306 228L287 357L330 252Z" fill="#31475f" stroke="#31475f"></path><path d="M355 386L319 450L432 450Z" fill="#2e769c" stroke="#2e769c"></path><path d="M639 156L505 157L591 277Z" fill="#324e69" stroke="#324e69"></path><path d="M505 157L469 99L448 158Z" fill="#297ea6" stroke="#297ea6"></path><path d="M350 46L293 158L392 194Z" fill="#335e7d" stroke="#335e7d"></path><path d="M745 208L639 156L591 277Z" fill="#335673" stroke="#335673"></path><path d="M287 357L319 450L355 386Z" fill="#297ea6" stroke="#297ea6"></path><path d="M350 46L392 194L448 158Z" fill="#31475f" stroke="#31475f"></path><path d="M306 228L184 258L287 357Z" fill="#2c394b" stroke="#2c394b"></path><path d="M639 156L501 58L505 157Z" fill="#31475f" stroke="#31475f"></path><path d="M469 99L350 46L448 158Z" fill="#335e7d" stroke="#335e7d"></path><path d="M718 450L723 321L631 327Z" fill="#324e69" stroke="#324e69"></path><path d="M631 327L741 285L591 277Z" fill="#293241" stroke="#293241"></path><path d="M193 390L265 450L287 357Z" fill="#2e769c" stroke="#2e769c"></path><path d="M287 357L265 450L319 450Z" fill="#2e769c" stroke="#2e769c"></path><path d="M723 321L741 285L631 327Z" fill="#2f4055" stroke="#2f4055"></path><path d="M745 208L660 108L639 156Z" fill="#2f4055" stroke="#2f4055"></path><path d="M639 156L660 108L501 58Z" fill="#335e7d" stroke="#335e7d"></path><path d="M741 285L745 208L591 277Z" fill="#2e769c" stroke="#2e769c"></path><path d="M611 450L718 450L631 327Z" fill="#2f4055" stroke="#2f4055"></path><path d="M723 321L767 276L741 285Z" fill="#335673" stroke="#335673"></path><path d="M446 0L350 46L469 99Z" fill="#31475f" stroke="#31475f"></path><path d="M839 364L767 276L723 321Z" fill="#326687" stroke="#326687"></path><path d="M741 285L767 276L745 208Z" fill="#316e92" stroke="#316e92"></path><path d="M350 46L239 132L293 158Z" fill="#2e769c" stroke="#2e769c"></path><path d="M293 158L239 132L306 228Z" fill="#324e69" stroke="#324e69"></path><path d="M239 132L184 258L306 228Z" fill="#2c394b" stroke="#2c394b"></path><path d="M184 258L193 390L287 357Z" fill="#31475f" stroke="#31475f"></path><path d="M582 0L446 0L501 58Z" fill="#326687" stroke="#326687"></path><path d="M501 58L446 0L469 99Z" fill="#293241" stroke="#293241"></path><path d="M660 108L582 0L501 58Z" fill="#335673" stroke="#335673"></path><path d="M651 0L582 0L660 108Z" fill="#316e92" stroke="#316e92"></path><path d="M239 132L170 160L184 258Z" fill="#324e69" stroke="#324e69"></path><path d="M167 0L196 128L239 132Z" fill="#2c394b" stroke="#2c394b"></path><path d="M446 0L331 0L350 46Z" fill="#326687" stroke="#326687"></path><path d="M350 46L294 0L239 132Z" fill="#326687" stroke="#326687"></path><path d="M900 220L779 149L745 208Z" fill="#326687" stroke="#326687"></path><path d="M745 208L779 149L660 108Z" fill="#297ea6" stroke="#297ea6"></path><path d="M196 128L170 160L239 132Z" fill="#2f4055" stroke="#2f4055"></path><path d="M131 450L163 450L193 390Z" fill="#324e69" stroke="#324e69"></path><path d="M696 0L651 0L660 108Z" fill="#326687" stroke="#326687"></path><path d="M131 450L193 390L55 401Z" fill="#31475f" stroke="#31475f"></path><path d="M193 390L163 450L265 450Z" fill="#324e69" stroke="#324e69"></path><path d="M331 0L294 0L350 46Z" fill="#2c394b" stroke="#2c394b"></path><path d="M61 122L89 162L170 160Z" fill="#297ea6" stroke="#297ea6"></path><path d="M779 149L744 55L660 108Z" fill="#2e769c" stroke="#2e769c"></path><path d="M718 450L839 364L723 321Z" fill="#2e769c" stroke="#2e769c"></path><path d="M767 276L900 220L745 208Z" fill="#335e7d" stroke="#335e7d"></path><path d="M744 55L696 0L660 108Z" fill="#293241" stroke="#293241"></path><path d="M83 270L193 390L184 258Z" fill="#2c394b" stroke="#2c394b"></path><path d="M779 149L773 54L744 55Z" fill="#2e769c" stroke="#2e769c"></path><path d="M744 55L774 0L696 0Z" fill="#316e92" stroke="#316e92"></path><path d="M900 109L773 54L779 149Z" fill="#293241" stroke="#293241"></path><path d="M718 450L846 450L839 364Z" fill="#324e69" stroke="#324e69"></path><path d="M89 162L184 258L170 160Z" fill="#335e7d" stroke="#335e7d"></path><path d="M89 162L83 270L184 258Z" fill="#297ea6" stroke="#297ea6"></path><path d="M61 122L170 160L196 128Z" fill="#335e7d" stroke="#335e7d"></path><path d="M900 0L774 0L773 54Z" fill="#316e92" stroke="#316e92"></path><path d="M773 54L774 0L744 55Z" fill="#324e69" stroke="#324e69"></path><path d="M900 394L900 288L839 364Z" fill="#2e769c" stroke="#2e769c"></path><path d="M839 364L900 288L767 276Z" fill="#2f4055" stroke="#2f4055"></path><path d="M900 288L900 220L767 276Z" fill="#2c394b" stroke="#2c394b"></path><path d="M846 450L900 394L839 364Z" fill="#316e92" stroke="#316e92"></path><path d="M294 0L167 0L239 132Z" fill="#326687" stroke="#326687"></path><path d="M83 270L55 401L193 390Z" fill="#2c394b" stroke="#2c394b"></path><path d="M0 360L55 401L83 270Z" fill="#293241" stroke="#293241"></path><path d="M846 450L900 450L900 394Z" fill="#324e69" stroke="#324e69"></path><path d="M110 0L61 122L196 128Z" fill="#2c394b" stroke="#2c394b"></path><path d="M0 200L0 245L83 270Z" fill="#2e769c" stroke="#2e769c"></path><path d="M900 220L900 109L779 149Z" fill="#316e92" stroke="#316e92"></path><path d="M167 0L110 0L196 128Z" fill="#335673" stroke="#335673"></path><path d="M0 200L89 162L61 122Z" fill="#324e69" stroke="#324e69"></path><path d="M0 200L83 270L89 162Z" fill="#335673" stroke="#335673"></path><path d="M0 245L0 360L83 270Z" fill="#297ea6" stroke="#297ea6"></path><path d="M0 80L0 200L61 122Z" fill="#31475f" stroke="#31475f"></path><path d="M0 360L0 450L55 401Z" fill="#335673" stroke="#335673"></path><path d="M55 401L0 450L131 450Z" fill="#324e69" stroke="#324e69"></path><path d="M900 109L900 0L773 54Z" fill="#293241" stroke="#293241"></path><path d="M110 0L0 80L61 122Z" fill="#31475f" stroke="#31475f"></path><path d="M110 0L0 0L0 80Z" fill="#293241" stroke="#293241"></path></g></svg>